<?xml version="1.0" encoding="utf-8"?>
<!-- Generator: Adobe Illustrator 23.0.1, SVG Export Plug-In . SVG Version: 6.00 Build 0)  -->
<svg version="1.1" id="Layer_1" xmlns="http://www.w3.org/2000/svg" xmlns:xlink="http://www.w3.org/1999/xlink" x="0px" y="0px"
	 viewBox="0 0 130 130" style="enable-background:new 0 0 130 130;" xml:space="preserve">
<style type="text/css">
	.st0{fill-rule:evenodd;clip-rule:evenodd;fill:#606060;}
	.st1{fill-rule:evenodd;clip-rule:evenodd;fill:#FFFFFF;}
	.st2{fill-rule:evenodd;clip-rule:evenodd;fill:#003399;}
	.st3{fill:none;stroke:#FFFFFF;stroke-width:0.5669;}
	.st4{fill-rule:evenodd;clip-rule:evenodd;fill:#95BF3D;}
	.st5{fill-rule:evenodd;clip-rule:evenodd;fill:#AA2645;}
	.st6{fill-rule:evenodd;clip-rule:evenodd;fill:#850985;}
	.st7{fill-rule:evenodd;clip-rule:evenodd;fill:#FFFF66;}
</style>
<path class="st0" d="M57.8,60l11.7,17.8l0-16c0-2.5-0.5-2.5-2.6-5.3L63.5,52L57.8,60z"/>
<path class="st0" d="M50.9,60c5.3,4.8,10.5,9.9,15.7,14.9l-10-15.1l5-6.8c-0.4-0.5-0.8-0.9-1.2-1.3L50.9,60z"/>
<path class="st0" d="M45.3,60l13.4,9.8l4.8,3.3c-0.8-1.5-11.7-11.5-13.6-13.3l6.2-5.6l1.9-2c-1.1-0.7-1.3-0.1-3.2,1.2L45.3,60z"/>
<path class="st0" d="M81.9,60L70.2,77.8l-0.1-16c0-2.5,0.5-2.5,2.6-5.3l3.4-4.5L81.9,60z"/>
<path class="st0" d="M88.8,60c-5.3,4.8-10.5,9.9-15.7,14.9l10-15.1l-5-6.8c0.4-0.5,0.8-0.9,1.2-1.3L88.8,60z"/>
<path class="st0" d="M94.4,59.9L81,69.7L76.3,73C77,71.5,88,61.5,89.8,59.7l-6.2-5.6l-1.9-2c1.1-0.7,1.3-0.1,3.2,1.2L94.4,59.9z"/>
<path class="st1" d="M73.4,67.4c-0.6-1.3-1-1.2-0.1-2.5c0.4-0.6,0.1-0.4,0.3-0.9c0.2,0.2,0.4,1.1,0.7,1.5l0.2-0.1l-0.4-1
	c0.7-0.4,0.8,0,1.1-1.2l-0.2,0c-0.3,0.5-0.4,1-1,0.8c-0.4-1.1,0.1-1.2,0.2-1.4c-0.6-0.2-0.5,0.5-0.6,0.8l-0.4-0.9l-0.2,0.1
	c0.1,0.5,0.5,0.8,0.4,1.4c0,0.3-0.5,1.3-0.7,1.5c-0.5-0.4-0.2-0.7-0.5-1.1l-0.3,0.2c0.3,0.3,0.7,1,0.6,1.5L71.8,65
	c-0.2,0.4,0.4,1,0.5,1.5c-0.2,0.9-0.8,0.9-0.7,1.5c0.6,0,0.3-0.6,0.9-0.8c0.6,0.6,0.1,1.9,0.2,2.4c0.8-0.4,0-2.1,0.1-2.5
	C73.1,67.3,73,67.3,73.4,67.4z"/>
<path class="st1" d="M74.8,62.1c0.2,0.4,0.4,0.6,0.4,1c0.4,0.5,0,0.9,0.5,1.5c0.1,0.3,0,0.2,0.3,0.3c0.6-0.7-1.3-2.1-0.6-3.5
	c0.4,0.2,0,0.4,0.5,0.6c0.6-0.7-0.1-1.3-0.5-1.9c0.1-0.5,0.2-1.1,0.6-1.5c0.4,0.3,0.3,1,0.8,1.2c0.3-0.4-0.2-0.7,0.2-1.3
	c1.3-0.3,1.7,0.9,2.1,1.2c0.3-0.7-1.3-1.7-2.3-1.3l-0.2,0.8c-0.4-0.3-0.1-0.7-0.6-0.9c-0.4,0.4-0.6,1.4-0.9,2c0.6,0,1,0.9,0.7,1.4
	c-0.3-0.2,0-0.4-0.5-0.7c-0.4,0.4-0.1,0.7-0.2,1.2c-0.2-0.2-0.4-0.5-0.5-0.8l-0.2,0.1L74.8,62.1z M75.8,64.6l-0.2-0.9
	c0.3,0.2,0.4,0.6,0.4,0.9L75.8,64.6z"/>
<path class="st1" d="M77,57.7c0.3-0.2,0-0.1,0.1-0.5c0.1-0.3,0.2-0.4,0.2-0.8C77.1,56.6,76.7,57.4,77,57.7z"/>
<path class="st2" d="M59,4.1c3.6,4.5,3,11.1-1.5,14.7c-4.4,3.6-10.9,3-14.6-1.5c-3.6-4.5-3-11.1,1.5-14.7C48.8-1,55.3-0.3,59,4.1z"
	/>
<path class="st3" d="M59,4.1c3.6,4.5,3,11.1-1.5,14.7c-4.4,3.6-10.9,3-14.6-1.5c-3.6-4.5-3-11.1,1.5-14.7C48.8-1,55.3-0.3,59,4.1z"
	/>
<path class="st2" d="M63.4,11.1c-0.9,8.5-8.8,16.1-19.3,9.8c-4.7,4-6.4,8.8-5.3,15.4c4.3-0.5,12.4-1.7,16,0.3
	c17.3-19.8,24.6-5.1,29.1,15c9-9.2-0.2-27.6-8.6-34.4C71,13.7,66,11.7,63.4,11.1z"/>
<path class="st3" d="M63.4,11.1c-0.9,8.5-8.8,16.1-19.3,9.8c-4.7,4-6.4,8.8-5.3,15.4c4.3-0.5,12.4-1.7,16,0.3
	c17.3-19.8,24.6-5.1,29.1,15c9-9.2-0.2-27.6-8.6-34.4C71,13.7,66,11.7,63.4,11.1z"/>
<path class="st4" d="M9.9,56.5c5.3-2.1,11.3,0.5,13.4,5.9c2.1,5.4-0.5,11.4-5.9,13.5C12.1,78,6.1,75.4,4,70
	C2,64.6,4.6,58.5,9.9,56.5z"/>
<path class="st3" d="M9.9,56.5c5.3-2.1,11.3,0.5,13.4,5.9c2.1,5.4-0.5,11.4-5.9,13.5C12.1,78,6.1,75.4,4,70
	C2,64.6,4.6,58.5,9.9,56.5z"/>
<path class="st4" d="M17.8,54.3c7.7,3.4,12.4,13.4,3.3,21.6c2.3,5.7,6.3,8.9,12.9,9.8c0.9-4.3,2.2-12.5,5.2-15.3
	C25.7,47.6,41.8,45.1,62.2,47c-5.9-11.5-26.1-8.2-35.1-2.2C22.6,47.8,19.2,52,17.8,54.3z"/>
<path class="st3" d="M17.8,54.3c7.7,3.4,12.4,13.4,3.3,21.6c2.3,5.7,6.3,8.9,12.9,9.8c0.9-4.3,2.2-12.5,5.2-15.3
	C25.7,47.6,41.8,45.1,62.2,47c-5.9-11.5-26.1-8.2-35.1-2.2C22.6,47.8,19.2,52,17.8,54.3z"/>
<path class="st5" d="M43.7,119.9c-0.3-5.8,4-10.7,9.7-11c5.7-0.3,10.6,4.1,10.9,9.8c0.3,5.8-4,10.7-9.7,11
	C48.9,130,44,125.6,43.7,119.9z"/>
<path class="st3" d="M43.7,119.9c-0.3-5.8,4-10.7,9.7-11c5.7-0.3,10.6,4.1,10.9,9.8c0.3,5.8-4,10.7-9.7,11
	C48.9,130,44,125.6,43.7,119.9z"/>
<path class="st5" d="M44.1,111.6c5.6-6.3,16.5-7.8,21.3,3.6c6.1-0.5,10.3-3.3,13.2-9.3c-3.8-2.2-11.1-6-12.8-9.7
	C40.3,101.9,43,85.7,51,66.7c-12.7,2.1-15.8,22.5-13,33C39.4,105,42.4,109.6,44.1,111.6z"/>
<path class="st3" d="M44.1,111.6c5.6-6.3,16.5-7.8,21.3,3.6c6.1-0.5,10.3-3.3,13.2-9.3c-3.8-2.2-11.1-6-12.8-9.7
	C40.3,101.9,43,85.7,51,66.7c-12.7,2.1-15.8,22.5-13,33C39.4,105,42.4,109.6,44.1,111.6z"/>
<path class="st6" d="M113.1,107.9c-5.5-1.7-8.5-7.5-6.9-13.1c1.7-5.5,7.5-8.6,12.9-6.9c5.5,1.7,8.5,7.5,6.9,13.1
	C124.3,106.5,118.6,109.6,113.1,107.9z"/>
<path class="st3" d="M113.1,107.9c-5.5-1.7-8.5-7.5-6.9-13.1c1.7-5.5,7.5-8.6,12.9-6.9c5.5,1.7,8.5,7.5,6.9,13.1
	C124.3,106.5,118.6,109.6,113.1,107.9z"/>
<path class="st6" d="M105.6,104.6c-3.9-7.5-1.5-18.3,10.7-19c1.7-5.9,0.5-10.9-4.1-15.8c-3.3,2.9-9.4,8.4-13.5,8.8
	c-3.5,26.2-17.6,18-32.5,3.8c-2.4,12.7,15.3,22.8,26.1,23.8C97.8,106.7,103.1,105.5,105.6,104.6z"/>
<path class="st3" d="M105.6,104.6c-3.9-7.5-1.5-18.3,10.7-19c1.7-5.9,0.5-10.9-4.1-15.8c-3.3,2.9-9.4,8.4-13.5,8.8
	c-3.5,26.2-17.6,18-32.5,3.8c-2.4,12.7,15.3,22.8,26.1,23.8C97.8,106.7,103.1,105.5,105.6,104.6z"/>
<path class="st7" d="M124.6,37.6c-3.4,4.6-9.9,5.5-14.5,2.1c-4.6-3.5-5.5-10-2.1-14.6c3.4-4.6,9.9-5.5,14.5-2.1
	C127.1,26.4,128,33,124.6,37.6z"/>
<path class="st3" d="M124.6,37.6c-3.4,4.6-9.9,5.5-14.5,2.1c-4.6-3.5-5.5-10-2.1-14.6c3.4-4.6,9.9-5.5,14.5-2.1
	C127.1,26.4,128,33,124.6,37.6z"/>
<path class="st7" d="M119,43.6c-8.4,1.2-17.6-4.8-14-16.6c-5-3.6-10-4.2-16.1-1.5c1.5,4.2,4.7,11.8,3.6,15.8
	c23.2,12.2,10.8,22.9-7.5,32.2c11,6.7,26.5-6.8,31-16.7C118.3,51.7,119,46.3,119,43.6z"/>
<path class="st3" d="M119,43.6c-8.4,1.2-17.6-4.8-14-16.6c-5-3.6-10-4.2-16.1-1.5c1.5,4.2,4.7,11.8,3.6,15.8
	c23.2,12.2,10.8,22.9-7.5,32.2c11,6.7,26.5-6.8,31-16.7C118.3,51.7,119,46.3,119,43.6z"/>
</svg>
