<?xml version="1.0" encoding="utf-8"?>
<!-- Generator: Adobe Illustrator 23.0.1, SVG Export Plug-In . SVG Version: 6.00 Build 0)  -->
<svg version="1.1" id="Layer_1" xmlns="http://www.w3.org/2000/svg" xmlns:xlink="http://www.w3.org/1999/xlink" x="0px" y="0px"
	 viewBox="0 0 173 41" style="enable-background:new 0 0 173 41;" xml:space="preserve">
<style type="text/css">
	.st0{fill-rule:evenodd;clip-rule:evenodd;fill:#FFFFFF;}
	.st1{fill-rule:evenodd;clip-rule:evenodd;}
	.st2{fill-rule:evenodd;clip-rule:evenodd;fill:#003399;}
	.st3{fill:none;stroke:#FFFFFF;stroke-width:0.5669;}
	.st4{fill-rule:evenodd;clip-rule:evenodd;fill:#95BF3D;}
	.st5{fill-rule:evenodd;clip-rule:evenodd;fill:#AA2645;}
	.st6{fill-rule:evenodd;clip-rule:evenodd;fill:#850985;}
	.st7{fill-rule:evenodd;clip-rule:evenodd;fill:#FFFF66;}
	.st8{font-family:'Raleway-Bold';}
	.st9{font-size:8.6542px;}
	.st10{fill-rule:evenodd;clip-rule:evenodd;fill:#606060;}
</style>
<g>
	<text transform="matrix(0.9992 0 0 1 46.9538 18.4419)"><tspan x="0" y="0" class="st8 st9">Firidun bəy Köçərli adına</tspan><tspan x="0" y="10.4" class="st8 st9">Respublika Uşaq Kitabxanası </tspan></text>
</g>
<path class="st10" d="M20.2,18.9l3.7,5.6l0-5c0-0.8-0.2-0.8-0.8-1.7L22,16.4L20.2,18.9z"/>
<path class="st10" d="M18,18.9c1.7,1.5,3.3,3.1,5,4.7l-3.2-4.7l1.6-2.1c-0.1-0.1-0.2-0.3-0.4-0.4L18,18.9z"/>
<path class="st10" d="M16.3,18.9l4.2,3.1l1.5,1c-0.2-0.5-3.7-3.6-4.3-4.2l1.9-1.8l0.6-0.6c-0.4-0.2-0.4,0-1,0.4L16.3,18.9z"/>
<path class="st10" d="M27.8,18.9l-3.7,5.6l0-5c0-0.8,0.2-0.8,0.8-1.7l1.1-1.4L27.8,18.9z"/>
<path class="st10" d="M30,18.9c-1.7,1.5-3.3,3.1-4.9,4.7l3.1-4.7l-1.6-2.1c0.1-0.1,0.2-0.3,0.4-0.4L30,18.9z"/>
<path class="st10" d="M31.8,18.9L27.5,22L26,23c0.2-0.5,3.7-3.6,4.3-4.2l-1.9-1.8l-0.6-0.6c0.4-0.2,0.4,0,1,0.4L31.8,18.9z"/>
<path class="st0" d="M25.1,21.2c-0.2-0.4-0.3-0.4,0-0.8c0.1-0.2,0-0.1,0.1-0.3c0.1,0.1,0.1,0.3,0.2,0.5l0.1,0l-0.1-0.3
	c0.2-0.1,0.2,0,0.3-0.4l-0.1,0c-0.1,0.2-0.1,0.3-0.3,0.3c-0.1-0.4,0-0.4,0.1-0.4c-0.2-0.1-0.2,0.2-0.2,0.2L25,19.8l-0.1,0
	c0,0.2,0.1,0.3,0.1,0.4c0,0.1-0.2,0.4-0.2,0.5c-0.2-0.1-0.1-0.2-0.2-0.3l-0.1,0.1c0.1,0.1,0.2,0.3,0.2,0.5l-0.2-0.4
	c0,0.1,0.1,0.3,0.2,0.5c-0.1,0.3-0.3,0.3-0.2,0.5c0.2,0,0.1-0.2,0.3-0.3c0.2,0.2,0,0.6,0.1,0.7c0.2-0.1,0-0.7,0-0.8
	C25.1,21.2,25,21.2,25.1,21.2z"/>
<path class="st0" d="M25.6,19.6c0.1,0.1,0.1,0.2,0.1,0.3c0.1,0.2,0,0.3,0.2,0.5c0,0.1,0,0.1,0.1,0.1c0.2-0.2-0.4-0.7-0.2-1.1
	c0.1,0.1,0,0.1,0.2,0.2c0.2-0.2,0-0.4-0.1-0.6c0-0.1,0.1-0.4,0.2-0.5c0.1,0.1,0.1,0.3,0.3,0.4c0.1-0.1-0.1-0.2,0.1-0.4
	c0.4-0.1,0.5,0.3,0.7,0.4c0.1-0.2-0.4-0.5-0.7-0.4l-0.1,0.3c-0.1-0.1,0-0.2-0.2-0.3c-0.1,0.1-0.2,0.5-0.3,0.6c0.2,0,0.3,0.3,0.2,0.4
	c-0.1-0.1,0-0.1-0.2-0.2c-0.1,0.1,0,0.2-0.1,0.4c-0.1-0.1-0.1-0.2-0.2-0.3l-0.1,0L25.6,19.6z M25.9,20.4l-0.1-0.3
	C25.9,20.2,26,20.3,25.9,20.4L25.9,20.4z"/>
<path class="st0" d="M26.3,18.2c0.1-0.1,0,0,0-0.2c0-0.1,0.1-0.1,0.1-0.2C26.3,17.9,26.2,18.1,26.3,18.2z"/>
<path class="st2" d="M20.6,1.5c1.1,1.4,0.9,3.5-0.5,4.6c-1.4,1.1-3.5,0.9-4.6-0.5C14.4,4.2,14.6,2.2,16,1
	C17.4-0.1,19.4,0.1,20.6,1.5z"/>
<path class="st3" d="M20.6,1.5c1.1,1.4,0.9,3.5-0.5,4.6c-1.4,1.1-3.5,0.9-4.6-0.5C14.4,4.2,14.6,2.2,16,1
	C17.4-0.1,19.4,0.1,20.6,1.5z"/>
<path class="st2" d="M22,3.6c-0.3,2.6-2.8,5-6.1,3.1c-1.5,1.3-2,2.8-1.7,4.8c1.4-0.2,3.9-0.5,5.1,0.1c5.5-6.2,7.8-1.6,9.2,4.7
	c2.9-2.9-0.1-8.6-2.7-10.8C24.4,4.5,22.8,3.9,22,3.6z"/>
<path class="st3" d="M22,3.6c-0.3,2.6-2.8,5-6.1,3.1c-1.5,1.3-2,2.8-1.7,4.8c1.4-0.2,3.9-0.5,5.1,0.1c5.5-6.2,7.8-1.6,9.2,4.7
	c2.9-2.9-0.1-8.6-2.7-10.8C24.4,4.5,22.8,3.9,22,3.6z"/>
<path class="st4" d="M5.1,17.8c1.7-0.7,3.6,0.2,4.2,1.9c0.7,1.7-0.2,3.6-1.8,4.2c-1.7,0.7-3.6-0.2-4.2-1.9
	C2.6,20.4,3.4,18.5,5.1,17.8z"/>
<path class="st3" d="M5.1,17.8c1.7-0.7,3.6,0.2,4.2,1.9c0.7,1.7-0.2,3.6-1.8,4.2c-1.7,0.7-3.6-0.2-4.2-1.9
	C2.6,20.4,3.4,18.5,5.1,17.8z"/>
<path class="st4" d="M7.6,17.2c2.4,1.1,3.9,4.2,1,6.7c0.7,1.8,2,2.8,4.1,3.1c0.3-1.4,0.7-3.9,1.6-4.8c-4.2-7.1,0.9-7.9,7.3-7.3
	c-1.9-3.6-8.2-2.6-11.1-0.7C9.1,15.1,8,16.5,7.6,17.2z"/>
<path class="st3" d="M7.6,17.2c2.4,1.1,3.9,4.2,1,6.7c0.7,1.8,2,2.8,4.1,3.1c0.3-1.4,0.7-3.9,1.6-4.8c-4.2-7.1,0.9-7.9,7.3-7.3
	c-1.9-3.6-8.2-2.6-11.1-0.7C9.1,15.1,8,16.5,7.6,17.2z"/>
<path class="st5" d="M15.8,37.6c-0.1-1.8,1.3-3.3,3.1-3.4c1.8-0.1,3.3,1.3,3.4,3.1c0.1,1.8-1.3,3.3-3.1,3.4
	C17.4,40.8,15.9,39.4,15.8,37.6z"/>
<path class="st3" d="M15.8,37.6c-0.1-1.8,1.3-3.3,3.1-3.4c1.8-0.1,3.3,1.3,3.4,3.1c0.1,1.8-1.3,3.3-3.1,3.4
	C17.4,40.8,15.9,39.4,15.8,37.6z"/>
<path class="st5" d="M15.9,35.1c1.8-2,5.2-2.4,6.7,1.1c1.9-0.2,3.3-1,4.2-2.9c-1.2-0.7-3.5-1.9-4-3C14.7,32,15.5,27,18.1,21
	c-4,0.7-5,7-4.1,10.3C14.4,33,15.4,34.4,15.9,35.1z"/>
<path class="st3" d="M15.9,35.1c1.8-2,5.2-2.4,6.7,1.1c1.9-0.2,3.3-1,4.2-2.9c-1.2-0.7-3.5-1.9-4-3C14.7,32,15.5,27,18.1,21
	c-4,0.7-5,7-4.1,10.3C14.4,33,15.4,34.4,15.9,35.1z"/>
<path class="st6" d="M37.7,33.9c-1.7-0.5-2.7-2.4-2.2-4.1c0.5-1.7,2.4-2.7,4.1-2.2c1.7,0.5,2.7,2.4,2.2,4.1
	C41.2,33.5,39.4,34.4,37.7,33.9z"/>
<path class="st3" d="M37.7,33.9c-1.7-0.5-2.7-2.4-2.2-4.1c0.5-1.7,2.4-2.7,4.1-2.2c1.7,0.5,2.7,2.4,2.2,4.1
	C41.2,33.5,39.4,34.4,37.7,33.9z"/>
<path class="st6" d="M35.3,32.9c-1.2-2.4-0.5-5.7,3.4-5.9c0.5-1.9,0.2-3.4-1.3-4.9c-1.1,0.9-3,2.6-4.2,2.7
	c-1.1,8.2-5.6,5.6-10.2,1.2c-0.8,4,4.8,7.1,8.2,7.4C32.8,33.5,34.5,33.1,35.3,32.9z"/>
<path class="st3" d="M35.3,32.9c-1.2-2.4-0.5-5.7,3.4-5.9c0.5-1.9,0.2-3.4-1.3-4.9c-1.1,0.9-3,2.6-4.2,2.7
	c-1.1,8.2-5.6,5.6-10.2,1.2c-0.8,4,4.8,7.1,8.2,7.4C32.8,33.5,34.5,33.1,35.3,32.9z"/>
<path class="st7" d="M41.3,11.9c-1.1,1.4-3.1,1.7-4.6,0.6C35.3,11.5,35,9.5,36.1,8c1.1-1.4,3.1-1.7,4.6-0.6
	C42.1,8.5,42.4,10.5,41.3,11.9z"/>
<path class="st3" d="M41.3,11.9c-1.1,1.4-3.1,1.7-4.6,0.6C35.3,11.5,35,9.5,36.1,8c1.1-1.4,3.1-1.7,4.6-0.6
	C42.1,8.5,42.4,10.5,41.3,11.9z"/>
<path class="st7" d="M39.5,13.8c-2.6,0.4-5.5-1.5-4.4-5.2c-1.6-1.1-3.2-1.3-5.1-0.5c0.5,1.3,1.5,3.7,1.1,4.9c7.3,3.8,3.4,7.2-2.4,10
	c3.5,2.1,8.3-2.1,9.8-5.2C39.3,16.4,39.5,14.7,39.5,13.8z"/>
<path class="st3" d="M39.5,13.8c-2.6,0.4-5.5-1.5-4.4-5.2c-1.6-1.1-3.2-1.3-5.1-0.5c0.5,1.3,1.5,3.7,1.1,4.9c7.3,3.8,3.4,7.2-2.4,10
	c3.5,2.1,8.3-2.1,9.8-5.2C39.3,16.4,39.5,14.7,39.5,13.8z"/>
</svg>
