<?xml version="1.0" encoding="utf-8"?>
<!-- Generator: Adobe Illustrator 23.0.1, SVG Export Plug-In . SVG Version: 6.00 Build 0)  -->
<svg version="1.1" id="Layer_1" xmlns="http://www.w3.org/2000/svg" xmlns:xlink="http://www.w3.org/1999/xlink" x="0px" y="0px"
	 viewBox="0 0 225 41" style="enable-background:new 0 0 225 41;" xml:space="preserve">
<style type="text/css">
	.st0{fill-rule:evenodd;clip-rule:evenodd;fill:#FFFFFF;}
	.st1{fill-rule:evenodd;clip-rule:evenodd;}
	.st2{fill-rule:evenodd;clip-rule:evenodd;fill:#003399;}
	.st3{fill:none;stroke:#FFFFFF;stroke-width:0.5669;}
	.st4{fill-rule:evenodd;clip-rule:evenodd;fill:#95BF3D;}
	.st5{fill-rule:evenodd;clip-rule:evenodd;fill:#AA2645;}
	.st6{fill-rule:evenodd;clip-rule:evenodd;fill:#850985;}
	.st7{fill-rule:evenodd;clip-rule:evenodd;fill:#FFFF66;}
	.st8{fill:#FFFFFF;}
	.st9{font-family:'Times-Bold';}
	.st10{font-size:8.6542px;}
	.st11{fill-rule:evenodd;clip-rule:evenodd;fill:#606060;}
</style>
<path class="st0" d="M48.1,18.9l3.7,5.6l0-5c0-0.8-0.2-0.8-0.8-1.7l-1.1-1.4L48.1,18.9z"/>
<path class="st0" d="M45.9,18.9c1.7,1.5,3.3,3.1,5,4.7l-3.2-4.7l1.6-2.1c-0.1-0.1-0.2-0.3-0.4-0.4L45.9,18.9z"/>
<path class="st0" d="M44.2,18.9l4.2,3.1l1.5,1c-0.2-0.5-3.7-3.6-4.3-4.2l1.9-1.8l0.6-0.6c-0.4-0.2-0.4,0-1,0.4L44.2,18.9z"/>
<path class="st0" d="M55.7,18.9L52,24.5l0-5c0-0.8,0.2-0.8,0.8-1.7l1.1-1.4L55.7,18.9z"/>
<path class="st0" d="M57.9,18.9c-1.7,1.5-3.3,3.1-4.9,4.7l3.1-4.7l-1.6-2.1c0.1-0.1,0.2-0.3,0.4-0.4L57.9,18.9z"/>
<path class="st0" d="M59.7,18.9L55.4,22l-1.5,1c0.2-0.5,3.7-3.6,4.3-4.2l-1.9-1.8l-0.6-0.6c0.4-0.2,0.4,0,1,0.4L59.7,18.9z"/>
<path class="st1" d="M53,21.2c-0.2-0.4-0.3-0.4,0-0.8c0.1-0.2,0-0.1,0.1-0.3c0.1,0.1,0.1,0.3,0.2,0.5l0.1,0l-0.1-0.3
	c0.2-0.1,0.2,0,0.3-0.4l-0.1,0c-0.1,0.2-0.1,0.3-0.3,0.3c-0.1-0.4,0-0.4,0.1-0.4c-0.2-0.1-0.2,0.2-0.2,0.2l-0.1-0.3l-0.1,0
	c0,0.2,0.1,0.3,0.1,0.4c0,0.1-0.2,0.4-0.2,0.5c-0.2-0.1-0.1-0.2-0.2-0.3l-0.1,0.1c0.1,0.1,0.2,0.3,0.2,0.5l-0.2-0.4
	c0,0.1,0.1,0.3,0.2,0.5c-0.1,0.3-0.3,0.3-0.2,0.5c0.2,0,0.1-0.2,0.3-0.3c0.2,0.2,0,0.6,0.1,0.7c0.2-0.1,0-0.7,0-0.8
	C52.9,21.2,52.9,21.2,53,21.2z"/>
<path class="st1" d="M53.5,19.6c0.1,0.1,0.1,0.2,0.1,0.3c0.1,0.2,0,0.3,0.2,0.5c0,0.1,0,0.1,0.1,0.1c0.2-0.2-0.4-0.7-0.2-1.1
	c0.1,0.1,0,0.1,0.2,0.2c0.2-0.2,0-0.4-0.1-0.6c0-0.1,0.1-0.4,0.2-0.5c0.1,0.1,0.1,0.3,0.3,0.4c0.1-0.1-0.1-0.2,0.1-0.4
	c0.4-0.1,0.5,0.3,0.7,0.4c0.1-0.2-0.4-0.5-0.7-0.4l-0.1,0.3c-0.1-0.1,0-0.2-0.2-0.3c-0.1,0.1-0.2,0.5-0.3,0.6c0.2,0,0.3,0.3,0.2,0.4
	c-0.1-0.1,0-0.1-0.2-0.2c-0.1,0.1,0,0.2-0.1,0.4c-0.1-0.1-0.1-0.2-0.2-0.3l-0.1,0L53.5,19.6z M53.8,20.4l-0.1-0.3
	C53.8,20.2,53.8,20.3,53.8,20.4L53.8,20.4z"/>
<path class="st1" d="M54.2,18.2c0.1-0.1,0,0,0-0.2c0-0.1,0.1-0.1,0.1-0.2C54.2,17.9,54.1,18.1,54.2,18.2z"/>
<path class="st2" d="M48.5,1.5c1.1,1.4,0.9,3.5-0.5,4.6c-1.4,1.1-3.5,0.9-4.6-0.5c-1.1-1.4-0.9-3.5,0.5-4.6
	C45.3-0.1,47.3,0.1,48.5,1.5z"/>
<path class="st3" d="M48.5,1.5c1.1,1.4,0.9,3.5-0.5,4.6c-1.4,1.1-3.5,0.9-4.6-0.5c-1.1-1.4-0.9-3.5,0.5-4.6
	C45.3-0.1,47.3,0.1,48.5,1.5z"/>
<path class="st2" d="M49.9,3.6c-0.3,2.6-2.8,5-6.1,3.1c-1.5,1.3-2,2.8-1.7,4.8c1.4-0.2,3.9-0.5,5.1,0.1c5.5-6.2,7.8-1.6,9.2,4.7
	c2.9-2.9-0.1-8.6-2.7-10.8C52.3,4.5,50.7,3.9,49.9,3.6z"/>
<path class="st3" d="M49.9,3.6c-0.3,2.6-2.8,5-6.1,3.1c-1.5,1.3-2,2.8-1.7,4.8c1.4-0.2,3.9-0.5,5.1,0.1c5.5-6.2,7.8-1.6,9.2,4.7
	c2.9-2.9-0.1-8.6-2.7-10.8C52.3,4.5,50.7,3.9,49.9,3.6z"/>
<path class="st4" d="M33,17.8c1.7-0.7,3.6,0.2,4.2,1.9c0.7,1.7-0.2,3.6-1.8,4.2c-1.7,0.7-3.6-0.2-4.2-1.9
	C30.5,20.4,31.3,18.5,33,17.8z"/>
<path class="st3" d="M33,17.8c1.7-0.7,3.6,0.2,4.2,1.9c0.7,1.7-0.2,3.6-1.8,4.2c-1.7,0.7-3.6-0.2-4.2-1.9
	C30.5,20.4,31.3,18.5,33,17.8z"/>
<path class="st4" d="M35.5,17.2c2.4,1.1,3.9,4.2,1,6.7c0.7,1.8,2,2.8,4.1,3.1c0.3-1.4,0.7-3.9,1.6-4.8c-4.2-7.1,0.9-7.9,7.3-7.3
	c-1.9-3.6-8.2-2.6-11.1-0.7C37,15.1,35.9,16.5,35.5,17.2z"/>
<path class="st3" d="M35.5,17.2c2.4,1.1,3.9,4.2,1,6.7c0.7,1.8,2,2.8,4.1,3.1c0.3-1.4,0.7-3.9,1.6-4.8c-4.2-7.1,0.9-7.9,7.3-7.3
	c-1.9-3.6-8.2-2.6-11.1-0.7C37,15.1,35.9,16.5,35.5,17.2z"/>
<path class="st5" d="M43.7,37.6c-0.1-1.8,1.3-3.3,3.1-3.4c1.8-0.1,3.3,1.3,3.4,3.1c0.1,1.8-1.3,3.3-3.1,3.4
	C45.3,40.8,43.8,39.4,43.7,37.6z"/>
<path class="st3" d="M43.7,37.6c-0.1-1.8,1.3-3.3,3.1-3.4c1.8-0.1,3.3,1.3,3.4,3.1c0.1,1.8-1.3,3.3-3.1,3.4
	C45.3,40.8,43.8,39.4,43.7,37.6z"/>
<path class="st5" d="M43.8,35.1c1.8-2,5.2-2.4,6.7,1.1c1.9-0.2,3.3-1,4.2-2.9c-1.2-0.7-3.5-1.9-4-3C42.6,32,43.4,27,46,21
	c-4,0.7-5,7-4.1,10.3C42.3,33,43.3,34.4,43.8,35.1z"/>
<path class="st3" d="M43.8,35.1c1.8-2,5.2-2.4,6.7,1.1c1.9-0.2,3.3-1,4.2-2.9c-1.2-0.7-3.5-1.9-4-3C42.6,32,43.4,27,46,21
	c-4,0.7-5,7-4.1,10.3C42.3,33,43.3,34.4,43.8,35.1z"/>
<path class="st6" d="M65.6,33.9c-1.7-0.5-2.7-2.4-2.2-4.1c0.5-1.7,2.4-2.7,4.1-2.2c1.7,0.5,2.7,2.4,2.2,4.1
	C69.1,33.5,67.3,34.4,65.6,33.9z"/>
<path class="st3" d="M65.6,33.9c-1.7-0.5-2.7-2.4-2.2-4.1c0.5-1.7,2.4-2.7,4.1-2.2c1.7,0.5,2.7,2.4,2.2,4.1
	C69.1,33.5,67.3,34.4,65.6,33.9z"/>
<path class="st6" d="M63.2,32.9c-1.2-2.4-0.5-5.7,3.4-5.9c0.5-1.9,0.2-3.4-1.3-4.9c-1.1,0.9-3,2.6-4.2,2.7
	c-1.1,8.2-5.6,5.6-10.2,1.2c-0.8,4,4.8,7.1,8.2,7.4C60.7,33.5,62.4,33.1,63.2,32.9z"/>
<path class="st3" d="M63.2,32.9c-1.2-2.4-0.5-5.7,3.4-5.9c0.5-1.9,0.2-3.4-1.3-4.9c-1.1,0.9-3,2.6-4.2,2.7
	c-1.1,8.2-5.6,5.6-10.2,1.2c-0.8,4,4.8,7.1,8.2,7.4C60.7,33.5,62.4,33.1,63.2,32.9z"/>
<path class="st7" d="M69.2,11.9c-1.1,1.4-3.1,1.7-4.6,0.6C63.2,11.5,62.9,9.5,64,8c1.1-1.4,3.1-1.7,4.6-0.6
	C70,8.5,70.3,10.5,69.2,11.9z"/>
<path class="st3" d="M69.2,11.9c-1.1,1.4-3.1,1.7-4.6,0.6C63.2,11.5,62.9,9.5,64,8c1.1-1.4,3.1-1.7,4.6-0.6
	C70,8.5,70.3,10.5,69.2,11.9z"/>
<path class="st7" d="M67.4,13.8c-2.6,0.4-5.5-1.5-4.4-5.2c-1.6-1.1-3.2-1.3-5.1-0.5c0.5,1.3,1.5,3.7,1.1,4.9c7.3,3.8,3.4,7.2-2.4,10
	c3.5,2.1,8.3-2.1,9.8-5.2C67.2,16.4,67.4,14.7,67.4,13.8z"/>
<path class="st3" d="M67.4,13.8c-2.6,0.4-5.5-1.5-4.4-5.2c-1.6-1.1-3.2-1.3-5.1-0.5c0.5,1.3,1.5,3.7,1.1,4.9c7.3,3.8,3.4,7.2-2.4,10
	c3.5,2.1,8.3-2.1,9.8-5.2C67.2,16.4,67.4,14.7,67.4,13.8z"/>
<text transform="matrix(0.9992 0 0 1 76.5828 18.8517)"><tspan x="0" y="0" class="st8 st9 st10">Firidun bəy Köçərli adına</tspan><tspan x="0" y="10.4" class="st8 st9 st10">Respublika Uşaq Kitabxanası </tspan></text>
</svg>
